<svg width="548pt" height="420pt" viewBox="0 0 548 420" version="1.1" xmlns="http://www.w3.org/2000/svg"><path fill="#fff" stroke="#fff" stroke-width="0.09375" d=" M 294.25 41.26 C 307.21 28.91 320.04 16.42 333.04 4.12 C 332.15 6.14 331.17 8.12 330.10 10.04 C 290.79 79.79 251.52 149.55 212.25 219.31 C 209.78 224.00 206.77 228.40 204.67 233.29 C 224.43 233.64 244.20 233.43 263.96 233.39 C 257.41 256.80 250.15 280.02 243.33 303.36 C 233.88 335.20 224.41 367.05 214.94 398.89 C 213.46 404.15 211.62 409.31 210.52 414.67 L 210.02 414.70 C 213.63 391.05 218.03 367.51 221.91 343.89 C 224.74 326.75 228.05 309.67 230.48 292.46 C 203.89 298.95 179.37 312.85 159.07 331.09 C 140.26 347.21 117.17 360.16 91.94 361.34 C 73.27 362.43 54.36 355.09 41.41 341.59 C 25.20 325.07 17.50 302.09 14.60 279.55 C 10.18 242.49 17.45 204.76 31.53 170.44 C 46.07 135.38 68.11 102.70 98.36 79.35 C 116.64 65.49 138.67 54.87 162.04 55.08 C 170.79 55.23 179.53 56.93 187.57 60.41 C 206.89 68.59 228.87 70.38 249.24 65.31 C 266.01 61.39 281.61 52.91 294.25 41.26 M 112.83 137.96 C 112.58 145.00 112.77 152.05 112.79 159.09 C 105.55 159.58 98.28 158.97 91.04 159.40 C 79.13 160.37 69.45 172.15 70.95 184.04 C 71.79 194.03 80.03 202.75 89.95 204.15 C 97.54 205.13 105.22 204.05 112.83 204.77 C 112.71 211.52 112.65 218.28 112.78 225.03 C 113.19 235.76 122.31 245.16 132.97 246.13 C 143.50 247.39 154.32 240.13 156.97 229.83 C 158.97 221.48 157.47 212.81 158.15 204.33 C 164.76 204.50 171.38 204.56 177.98 204.39 C 185.99 204.14 193.66 199.28 197.22 192.08 C 200.18 186.51 200.58 179.67 198.22 173.81 C 195.20 165.50 186.84 159.60 178.03 159.30 C 171.36 159.15 164.69 159.40 158.01 159.20 C 157.86 152.11 158.28 145.01 157.78 137.93 C 156.97 126.96 147.04 117.55 136.00 117.50 C 124.48 116.87 113.59 126.44 112.83 137.96 Z" /><path fill="#fff" stroke="#f" stroke-width="0.09375" d=" M 327.45 35.32 C 327.68 34.95 328.14 34.20 328.37 33.83 C 329.79 45.85 331.36 57.86 333.02 69.85 C 343.34 67.14 353.30 63.27 363.16 59.20 C 380.46 52.63 399.98 54.48 417.01 61.01 C 440.23 69.97 459.99 86.20 476.20 104.82 C 502.80 135.67 520.75 173.58 529.52 213.25 C 534.59 236.68 535.88 261.03 532.36 284.77 C 529.17 303.84 522.45 322.88 509.78 337.77 C 499.10 350.50 483.56 359.15 466.98 360.92 C 443.39 363.66 420.18 354.16 401.15 340.87 C 390.76 334.00 382.47 324.19 371.08 318.80 C 348.47 307.27 319.98 308.82 298.74 322.68 C 287.35 329.77 278.99 341.01 267.02 347.21 C 274.25 329.90 282.23 312.91 289.75 295.72 C 306.47 258.16 323.23 220.61 339.94 183.04 C 321.19 182.92 302.44 183.08 283.69 182.96 C 298.08 133.69 312.92 84.54 327.45 35.32 M 419.39 118.49 C 409.86 121.33 403.02 131.08 403.56 141.01 C 403.93 151.55 412.55 160.96 423.01 162.24 C 434.18 164.14 445.59 156.05 448.06 145.11 C 450.35 136.22 446.24 126.34 438.64 121.32 C 433.13 117.40 425.79 116.54 419.39 118.49 M 380.41 159.60 C 369.89 161.31 361.43 171.29 361.72 181.98 C 361.47 193.13 370.93 203.34 381.98 204.25 C 394.36 205.85 406.31 195.37 406.73 182.99 C 407.06 175.77 403.74 168.45 398.00 164.04 C 393.05 160.29 386.56 158.45 380.41 159.60 M 464.40 159.58 C 454.15 161.14 445.64 170.56 445.51 181.00 C 444.66 193.32 455.67 204.70 468.00 204.34 C 480.70 204.72 491.78 192.60 490.40 180.00 C 489.69 167.39 476.82 157.21 464.40 159.58 M 421.43 201.68 C 411.24 203.77 403.26 213.56 403.54 224.01 C 403.44 236.61 415.49 247.60 428.06 246.16 C 440.23 245.40 450.16 233.35 448.53 221.24 C 447.35 208.49 433.97 198.60 421.43 201.68 Z" /></svg>
