<?xml version="1.0" encoding="UTF-8" ?>
<!DOCTYPE svg PUBLIC "-//W3C//DTD SVG 1.1//EN" "http://www.w3.org/Graphics/SVG/1.1/DTD/svg11.dtd">
<svg width="1000pt" height="800pt" viewBox="0 0 1000 800" version="1.1" xmlns="http://www.w3.org/2000/svg">
<g id="#f8f8f6ff">
<path fill="#f8f8f6" stroke="#f8f8f6" stroke-width="0.09375" opacity="1.00" d=" M 208.00 55.00 C 264.67 55.00 321.33 55.00 378.00 55.00 C 378.00 61.67 378.00 68.33 378.00 75.00 C 384.67 75.00 391.33 75.00 398.00 75.00 C 398.00 84.67 398.00 94.33 398.00 104.00 C 465.00 104.00 532.00 104.00 599.00 104.00 C 599.00 94.33 599.00 84.67 599.00 75.00 C 605.66 75.00 612.33 75.00 619.00 75.00 C 619.00 68.33 619.00 61.67 619.00 55.00 C 675.67 55.00 732.33 55.00 789.00 55.00 C 789.00 61.67 789.00 68.33 789.00 75.00 C 796.00 75.00 803.00 75.00 810.00 75.00 C 810.00 92.30 810.00 109.60 810.00 126.90 C 814.24 126.28 817.03 129.93 820.67 131.34 C 833.42 138.91 845.20 148.00 856.60 157.41 C 862.25 162.38 867.37 167.98 872.73 173.28 C 874.95 176.97 878.55 179.50 880.84 183.14 C 885.03 187.72 888.17 193.11 892.00 197.98 C 895.25 202.81 897.80 208.07 901.22 212.79 C 912.70 233.52 921.52 255.87 925.77 279.23 C 927.23 287.40 928.90 295.51 929.14 303.80 C 929.52 305.17 930.09 306.52 930.01 307.99 C 930.01 317.00 929.98 326.00 930.01 335.00 C 929.95 338.08 930.37 341.29 929.13 344.21 C 928.79 347.21 929.41 350.35 928.14 353.21 C 927.98 360.98 925.63 368.49 924.07 376.07 C 922.54 385.41 918.88 394.18 916.20 403.21 C 915.97 406.90 912.86 409.34 911.68 412.69 C 910.67 415.65 909.37 418.49 907.81 421.21 C 913.23 418.73 917.72 414.74 922.97 411.96 C 933.68 404.95 944.59 398.27 955.39 391.39 C 956.76 390.53 958.82 388.98 960.23 390.65 C 967.00 397.65 969.48 407.43 972.64 416.36 C 975.36 425.11 977.19 434.12 978.92 443.11 C 979.16 449.07 981.26 454.78 981.14 460.79 C 982.54 463.96 981.71 467.46 982.13 470.80 C 984.18 475.72 981.81 481.28 983.86 486.21 C 984.16 507.43 983.96 528.69 983.96 549.93 C 981.92 555.16 984.11 560.97 982.13 566.20 C 981.60 569.58 982.63 573.14 981.37 576.40 C 980.51 579.05 981.47 581.94 980.63 584.60 C 979.65 586.87 980.20 589.39 979.84 591.79 C 978.33 597.41 978.24 603.25 976.92 608.92 C 973.49 628.66 968.71 648.23 962.14 667.19 C 962.15 675.05 956.73 681.31 954.62 688.55 C 950.41 695.40 946.31 702.30 942.20 709.20 C 937.19 717.03 931.26 724.21 925.28 731.28 C 922.94 734.01 919.63 735.59 917.22 738.24 C 904.30 749.18 887.76 755.41 871.03 757.02 C 863.69 756.97 856.34 757.02 849.00 757.00 C 831.00 754.58 813.47 747.25 799.69 735.29 C 794.22 731.53 790.08 726.24 785.24 721.77 C 773.51 708.63 764.04 693.62 755.99 678.00 C 744.02 653.57 735.07 627.68 728.79 601.21 C 728.16 599.34 727.92 597.39 727.87 595.44 C 726.88 594.41 725.99 593.30 725.58 591.92 C 722.04 591.55 719.39 594.31 716.14 595.14 C 704.79 599.18 692.94 601.77 681.03 603.02 C 672.68 602.99 664.32 602.99 655.97 603.02 C 639.06 601.28 622.23 596.80 606.99 589.01 C 567.23 569.16 538.38 528.69 533.61 484.41 C 532.32 481.27 533.69 477.73 532.38 474.60 C 531.70 472.47 532.07 470.19 531.99 468.00 C 509.66 468.00 487.34 468.00 465.01 468.00 C 465.66 472.45 463.55 476.55 463.99 480.99 C 462.90 488.03 462.01 495.20 460.13 502.13 C 451.44 535.99 429.00 566.10 398.96 583.95 C 381.53 594.85 361.32 600.95 341.03 603.02 C 332.68 602.99 324.32 602.99 315.97 603.02 C 303.31 601.68 290.67 598.87 278.69 594.32 C 276.35 593.26 274.13 591.60 271.42 591.92 C 271.00 593.30 270.11 594.41 269.13 595.44 C 269.12 599.35 267.57 603.01 266.81 606.80 C 260.89 630.62 252.57 653.87 242.01 676.00 C 239.82 680.99 236.56 685.38 234.32 690.34 C 222.35 710.83 207.07 729.97 186.97 742.97 C 175.23 750.49 161.76 755.12 148.00 757.00 C 140.66 757.02 133.31 756.97 125.97 757.02 C 108.10 755.28 90.31 748.32 77.16 735.83 C 73.59 733.49 70.50 730.41 68.18 726.84 C 59.68 717.64 53.22 706.82 46.96 696.04 C 44.69 692.19 41.92 688.56 40.88 684.14 C 37.75 678.71 35.01 672.72 34.64 666.39 C 25.92 641.65 20.81 615.77 17.02 589.97 C 17.16 585.93 15.45 582.16 15.95 578.08 C 14.61 574.25 15.17 570.19 14.87 566.21 C 12.81 561.28 15.19 555.72 13.14 550.79 C 12.84 529.57 13.04 508.31 13.03 487.07 C 14.62 482.60 13.68 477.83 14.13 473.21 C 15.87 469.52 14.19 465.33 15.62 461.60 C 17.87 441.79 21.43 421.74 29.12 403.13 C 31.06 398.37 33.51 393.61 37.36 390.11 C 38.95 389.41 40.30 390.66 41.60 391.38 C 52.40 398.26 63.31 404.94 74.03 411.96 C 79.27 414.74 83.77 418.73 89.19 421.21 C 86.33 416.40 85.09 410.82 81.66 406.32 C 79.60 398.05 76.07 390.15 74.18 381.81 C 71.41 369.37 68.25 356.93 67.87 344.21 C 67.27 342.54 66.85 340.81 66.98 339.03 C 67.12 328.09 66.80 317.14 67.13 306.21 C 68.12 303.92 68.03 301.44 68.01 299.01 C 69.98 285.65 72.01 272.09 76.12 259.12 C 78.45 250.03 82.36 241.46 85.69 232.70 C 88.87 226.24 92.03 219.76 95.39 213.39 C 98.79 208.66 101.44 203.46 104.60 198.58 C 110.10 191.13 115.17 183.30 121.73 176.71 C 126.22 170.33 132.47 165.46 137.73 159.74 C 151.89 147.56 167.01 136.34 183.36 127.24 C 184.56 127.02 185.77 126.90 187.00 126.90 C 187.00 109.60 187.00 92.30 187.00 75.00 C 194.00 75.00 201.00 75.00 208.00 75.00 C 208.00 68.33 208.00 61.67 208.00 55.00 M 274.08 159.04 C 265.79 160.84 257.22 161.40 249.12 164.12 C 238.64 166.98 228.24 170.45 218.67 175.67 C 207.66 180.73 197.57 187.56 188.23 195.24 C 180.83 200.73 174.95 207.96 168.24 214.24 C 164.77 218.45 161.35 222.72 158.16 227.15 C 150.86 236.42 145.85 247.16 140.69 257.70 C 136.27 268.59 132.70 279.87 130.39 291.40 C 129.50 296.60 128.89 301.82 127.99 307.00 C 127.45 311.95 129.17 317.38 126.99 322.00 C 129.17 326.62 127.45 332.05 127.99 337.00 C 129.25 344.38 129.98 351.89 131.80 359.22 C 135.07 371.25 138.64 383.34 144.67 394.33 C 149.73 405.35 156.56 415.43 164.24 424.77 C 169.73 432.17 176.96 438.05 183.24 444.76 C 190.45 450.60 197.70 456.52 205.67 461.32 C 212.14 465.44 219.20 468.49 226.01 471.99 C 237.09 476.61 248.63 480.23 260.40 482.61 C 265.60 483.50 270.82 484.11 275.99 485.01 C 280.95 485.55 286.38 483.82 291.00 486.01 C 295.62 483.82 301.05 485.55 306.01 485.01 C 313.38 483.75 320.89 483.01 328.22 481.20 C 340.25 477.93 352.34 474.36 363.34 468.33 C 372.40 464.16 380.84 458.78 388.78 452.77 C 394.89 449.43 401.44 446.44 406.26 441.25 C 412.10 435.53 420.34 432.97 425.75 426.75 C 430.04 421.69 437.06 420.09 441.38 415.04 C 484.81 415.01 528.26 414.90 571.69 415.09 C 575.61 419.91 579.17 425.05 583.24 429.76 C 588.43 434.90 593.57 440.10 598.76 445.25 C 606.08 450.97 613.24 457.02 621.32 461.69 C 627.57 465.69 634.43 468.58 641.01 471.99 C 652.09 476.61 663.63 480.23 675.40 482.61 C 680.60 483.50 685.82 484.11 690.99 485.01 C 695.95 485.55 701.38 483.82 706.00 486.01 C 711.71 483.41 718.46 486.33 724.41 484.38 C 744.05 482.16 763.49 476.35 781.00 467.00 C 792.81 461.48 803.14 453.37 813.24 445.26 C 818.58 439.92 823.92 434.59 829.25 429.24 C 834.97 421.92 841.02 414.76 845.69 406.67 C 849.69 400.43 852.58 393.56 855.99 387.00 C 860.61 375.91 864.23 364.37 866.61 352.60 C 867.50 347.39 868.11 342.18 869.01 337.00 C 869.55 332.05 867.82 326.61 870.01 322.00 C 867.35 316.01 870.51 308.94 868.16 302.78 C 867.85 297.25 866.60 291.85 865.61 286.40 C 862.28 273.81 858.61 261.16 852.33 249.66 C 847.06 238.23 839.92 227.76 831.84 218.15 C 829.12 213.96 825.13 210.86 821.75 207.25 C 800.74 185.08 772.80 170.02 743.22 162.80 C 736.52 161.11 729.64 160.52 722.92 159.04 C 719.69 158.83 716.43 159.24 713.21 158.87 C 710.28 157.62 707.08 158.04 704.00 157.99 C 565.69 158.03 427.38 157.95 289.08 158.03 C 284.24 159.66 279.09 158.74 274.08 159.04 Z" />
</g>
<g id="#f1601cff">
<path fill="#f1601c" stroke="#f1601c" stroke-width="0.09375" opacity="1.00" d=" M 694.97 215.05 C 700.61 215.68 705.33 211.32 710.97 211.97 C 716.86 212.38 723.05 210.95 728.65 213.33 C 742.85 217.80 754.10 230.46 756.96 245.06 C 757.05 250.35 757.05 255.65 756.96 260.94 C 753.82 277.17 740.20 290.90 723.91 293.91 C 721.90 294.02 719.86 294.03 717.99 294.84 C 714.58 293.30 710.77 294.38 707.18 293.86 C 701.13 292.19 695.17 289.74 690.29 285.73 C 687.88 283.47 685.54 281.13 683.28 278.72 C 679.26 273.83 676.80 267.87 675.14 261.81 C 674.88 255.95 674.88 250.04 675.14 244.18 C 676.88 237.92 679.42 231.69 683.75 226.76 C 687.47 223.04 690.95 218.82 695.91 216.70 C 695.67 216.28 695.20 215.46 694.97 215.05 Z" />
<path fill="#f1601c" stroke="#f1601c" stroke-width="0.09375" opacity="1.00" d=" M 255.00 217.00 C 280.67 217.00 306.33 217.00 332.00 217.00 C 332.01 239.67 331.99 262.33 332.00 285.00 C 352.33 285.01 372.67 284.99 393.00 285.00 C 393.00 311.67 393.01 338.33 392.99 365.00 C 372.66 365.01 352.33 364.99 332.00 365.00 C 331.99 385.33 332.01 405.66 332.00 426.00 C 306.33 426.00 280.67 426.00 255.00 426.00 C 254.99 405.67 255.01 385.33 255.00 365.00 C 232.66 364.99 210.33 365.01 188.00 365.00 C 188.00 338.33 188.00 311.67 188.00 285.00 C 210.33 284.99 232.66 285.01 254.99 285.00 C 255.01 262.33 254.99 239.67 255.00 217.00 Z" />
<path fill="#f1601c" stroke="#f1601c" stroke-width="0.09375" opacity="1.00" d=" M 637.38 285.35 C 646.17 284.60 655.56 284.19 663.69 288.30 C 674.35 293.52 683.18 303.30 686.05 314.97 C 687.75 320.49 686.78 326.33 686.99 332.00 C 685.08 349.43 670.22 364.43 652.93 366.94 C 648.31 367.07 643.68 367.07 639.07 366.94 C 622.05 364.47 607.53 349.95 605.06 332.93 C 604.93 328.31 604.93 323.68 605.06 319.07 C 607.45 302.62 621.08 288.50 637.38 285.35 Z" />
<path fill="#f1601c" stroke="#f1601c" stroke-width="0.09375" opacity="1.00" d=" M 774.37 285.35 C 783.17 284.60 792.55 284.19 800.68 288.30 C 811.35 293.51 820.18 303.30 823.05 314.97 C 824.75 320.48 823.77 326.33 823.99 332.00 C 822.08 349.43 807.22 364.42 789.93 366.94 C 785.31 367.07 780.69 367.07 776.08 366.94 C 759.05 364.47 744.53 349.95 742.06 332.93 C 741.92 328.31 741.92 323.69 742.06 319.08 C 744.45 302.62 758.08 288.50 774.37 285.35 Z" />
<path fill="#f1601c" stroke="#f1601c" stroke-width="0.09375" opacity="1.00" d=" M 707.37 355.35 C 716.17 354.60 725.55 354.19 733.68 358.30 C 744.35 363.52 753.18 373.30 756.04 384.97 C 757.75 390.48 756.78 396.33 756.99 402.00 C 755.08 419.43 740.22 434.42 722.93 436.94 C 718.31 437.07 713.68 437.07 709.07 436.94 C 692.05 434.47 677.53 419.95 675.06 402.93 C 674.92 398.31 674.93 393.69 675.06 389.07 C 677.45 372.62 691.08 358.50 707.37 355.35 Z" />
</g>
</svg>
